<svg fill="none" viewBox="0 0 24 24" height="24" width="24" xmlns="http://www.w3.org/2000/svg"><g clip-path="url(#clip0_29_675)"><path stroke-linejoin="round" stroke-linecap="round" stroke-width="2" stroke="white" d="M4 23V21"></path><path stroke-linejoin="round" stroke-linecap="round" stroke-width="2" stroke="white" d="M20 23V21"></path><path stroke-linejoin="round" stroke-linecap="round" stroke-width="2" stroke="white" d="M20 7V3C20 2.46957 19.7893 1.96086 19.4142 1.58579C19.0391 1.21071 18.5304 1 18 1H6C5.46957 1 4.96086 1.21071 4.58579 1.58579C4.21071 1.96086 4 2.46957 4 3V7"></path><path stroke-linejoin="round" stroke-linecap="round" stroke-width="2" stroke="white" d="M23 21V12.5C23 11.837 22.7366 11.2011 22.2678 10.7322C21.7989 10.2634 21.163 10 20.5 10C19.837 10 19.2011 10.2634 18.7322 10.7322C18.2634 11.2011 18 11.837 18 12.5V16H6V12.5C6 12.1717 5.93534 11.8466 5.8097 11.5433C5.68406 11.24 5.49991 10.9644 5.26777 10.7322C5.03562 10.5001 4.76002 10.3159 4.45671 10.1903C4.15339 10.0647 3.8283 10 3.5 10C2.83696 10 2.20107 10.2634 1.73223 10.7322C1.26339 11.2011 1 11.837 1 12.5V21H23Z"></path></g><defs><clipPath id="clip0_29_675"><rect fill="white" height="24" width="24"></rect></clipPath></defs></svg>